<?xml version="1.0" encoding="UTF-8" standalone="no"?>
<!-- Created with Inkscape (http://www.inkscape.org/) -->

<svg
   xmlns:dc="http://purl.org/dc/elements/1.1/"
   xmlns:cc="http://creativecommons.org/ns#"
   xmlns:rdf="http://www.w3.org/1999/02/22-rdf-syntax-ns#"
   xmlns:svg="http://www.w3.org/2000/svg"
   xmlns="http://www.w3.org/2000/svg"
   xmlns:sodipodi="http://sodipodi.sourceforge.net/DTD/sodipodi-0.dtd"
   xmlns:inkscape="http://www.inkscape.org/namespaces/inkscape"
   width="16px"
   height="16px"
   id="svg5402"
   version="1.1"
   inkscape:version="0.48.2 r9819"
   sodipodi:docname="edit-delete.svg">
  <defs
     id="defs5404" />
  <sodipodi:namedview
     id="base"
     pagecolor="#ffffff"
     bordercolor="#666666"
     borderopacity="1.0"
     inkscape:pageopacity="0.0"
     inkscape:pageshadow="2"
     inkscape:zoom="7.8481082"
     inkscape:cx="-10.664852"
     inkscape:cy="12.01291"
     inkscape:current-layer="layer1"
     showgrid="true"
     inkscape:grid-bbox="true"
     inkscape:document-units="px"
     inkscape:window-width="1366"
     inkscape:window-height="716"
     inkscape:window-x="-8"
     inkscape:window-y="-8"
     inkscape:window-maximized="1" />
  <metadata
     id="metadata5407">
    <rdf:RDF>
      <cc:Work
         rdf:about="">
        <dc:format>image/svg+xml</dc:format>
        <dc:type
           rdf:resource="http://purl.org/dc/dcmitype/StillImage" />
        <dc:title />
      </cc:Work>
    </rdf:RDF>
  </metadata>
  <g
     id="layer1"
     inkscape:label="Layer 1"
     inkscape:groupmode="layer">
    <path
       style="opacity:0.98999999;fill:#ffffff;fill-opacity:1;stroke:none"
       d="M 8 0 C 3.581722 0 -2.9901493e-017 3.5817219 0 8 C 0 12.418278 3.581722 16 8 16 C 12.418278 16 16 12.418278 16 8 C 16 3.5817219 12.418278 -2.9901494e-017 8 0 z M 8 3.375 C 10.553765 3.375 12.625 5.4462352 12.625 8 C 12.625 10.553765 10.553765 12.625 8 12.625 C 5.4462353 12.625 3.375 10.553765 3.375 8 C 3.375 5.4462352 5.4462353 3.375 8 3.375 z "
       id="path4124" />
    <path
       style="opacity:0.98999999;fill:#000000;fill-opacity:1;stroke:none"
       d="M 8 1.1875 C 4.2444637 1.1875 1.1875 4.2444636 1.1875 8 C 1.1875 11.755536 4.2444637 14.8125 8 14.8125 C 11.755536 14.8125 14.8125 11.755536 14.8125 8 C 14.8125 4.2444636 11.755536 1.1875 8 1.1875 z M 8 3.375 C 10.553765 3.375 12.625 5.4462352 12.625 8 C 12.625 10.553765 10.553765 12.625 8 12.625 C 5.4462353 12.625 3.375 10.553765 3.375 8 C 3.375 5.4462352 5.4462353 3.375 8 3.375 z "
       id="path4131" />
    <path
       style="opacity:0.98999999;fill:#ffffff;fill-opacity:1;stroke:none"
       d="M 8 2.5625 C 4.995571 2.5625 2.5625 4.9955709 2.5625 8 C 2.5625 11.004429 4.995571 13.4375 8 13.4375 C 11.004429 13.4375 13.4375 11.004429 13.4375 8 C 13.4375 4.9955709 11.004429 2.5625 8 2.5625 z M 8 3.375 C 10.553765 3.375 12.625 5.4462352 12.625 8 C 12.625 10.553765 10.553765 12.625 8 12.625 C 5.4462353 12.625 3.375 10.553765 3.375 8 C 3.375 5.4462352 5.4462353 3.375 8 3.375 z "
       id="path4133" />
    <rect
       transform="matrix(-0.70854282,-0.70566782,0.70854282,-0.70566782,0,0)"
       y="-1.4685916"
       x="-16.040268"
       height="1.1576091"
       width="9.9223633"
       id="rect3789"
       style="opacity:0.98999999;fill:#ffffff;fill-opacity:1;stroke:none" />
    <rect
       style="opacity:0.98999999;fill:#ffffff;fill-opacity:1;stroke:none"
       id="rect3791"
       width="9.9223633"
       height="1.1576091"
       x="-16.081928"
       y="0.19815883"
       transform="matrix(-0.70854282,-0.70566782,0.70854282,-0.70566782,0,0)" />
    <rect
       style="opacity:0.98999999;fill:#000000;fill-opacity:1;stroke:none"
       id="rect4135"
       width="12"
       height="1.4"
       x="-17.313766"
       y="-0.70005918"
       transform="matrix(-0.70710678,-0.70710678,0.70710678,-0.70710678,0,0)" />
  </g>
</svg>
