<?xml version="1.0" encoding="UTF-8" standalone="no"?>
<!-- Created with Inkscape (http://www.inkscape.org/) -->

<svg
   xmlns:dc="http://purl.org/dc/elements/1.1/"
   xmlns:cc="http://creativecommons.org/ns#"
   xmlns:rdf="http://www.w3.org/1999/02/22-rdf-syntax-ns#"
   xmlns:svg="http://www.w3.org/2000/svg"
   xmlns="http://www.w3.org/2000/svg"
   xmlns:sodipodi="http://sodipodi.sourceforge.net/DTD/sodipodi-0.dtd"
   xmlns:inkscape="http://www.inkscape.org/namespaces/inkscape"
   width="16px"
   height="16px"
   id="svg5163"
   version="1.1"
   inkscape:version="0.48.3.1 r9886"
   sodipodi:docname="Новый документ 41">
  <defs
     id="defs5165" />
  <sodipodi:namedview
     id="base"
     pagecolor="#ffffff"
     bordercolor="#666666"
     borderopacity="1.0"
     inkscape:pageopacity="0.0"
     inkscape:pageshadow="2"
     inkscape:zoom="22.197802"
     inkscape:cx="8"
     inkscape:cy="8"
     inkscape:current-layer="layer1"
     showgrid="true"
     inkscape:grid-bbox="true"
     inkscape:document-units="px"
     inkscape:window-width="1920"
     inkscape:window-height="999"
     inkscape:window-x="0"
     inkscape:window-y="26"
     inkscape:window-maximized="1" />
  <metadata
     id="metadata5168">
    <rdf:RDF>
      <cc:Work
         rdf:about="">
        <dc:format>image/svg+xml</dc:format>
        <dc:type
           rdf:resource="http://purl.org/dc/dcmitype/StillImage" />
        <dc:title></dc:title>
      </cc:Work>
    </rdf:RDF>
  </metadata>
  <g
     id="layer1"
     inkscape:label="Layer 1"
     inkscape:groupmode="layer">
    <g
       style="display:inline"
       id="g4037"
       transform="translate(-357.59203,-1035.5418)"
       inkscape:export-filename="/home/d1v1n/r49/Qr49/icons/edit-cut.png"
       inkscape:export-xdpi="135"
       inkscape:export-ydpi="135">
      <path
         style="fill:#ffffff;fill-opacity:1;stroke:none"
         d="m 360.86161,1038.6311 9.86021,12.6939 0.18953,-6.0446 -8.49253,-7.7403 c -0.58092,0.4701 -1.10722,0.7077 -1.55714,1.0911 z"
         id="path4010"
         inkscape:connector-curvature="0"
         sodipodi:nodetypes="cccccc" />
      <g
         transform="matrix(0.89932813,0.73551477,-0.70817194,0.92101334,794.39505,-172.87885)"
         id="g3989">
        <path
           style="fill:#ffffff;fill-opacity:1;stroke:none"
           d="m 346.48706,1038.5296 0.0754,13.8326 -3.34375,-3.8902 1.63348,-9.8038 c 0.64346,-0.01 1.12626,-0.1435 1.63488,-0.1385 z"
           id="path4134"
           inkscape:connector-curvature="0"
           sodipodi:nodetypes="cccccc" />
        <path
           sodipodi:type="arc"
           style="opacity:0.98999999;fill:#ffffff;fill-opacity:1;stroke:none"
           id="path4136"
           sodipodi:cx="344.90625"
           sodipodi:cy="1039.2997"
           sodipodi:rx="1.5"
           sodipodi:ry="2.625"
           d="m 346.40625,1039.2997 a 1.5,2.625 0 1 1 -3,0 1.5,2.625 0 1 1 3,0 z"
           transform="matrix(1.3333333,0,0,1.1785714,-113.10278,-185.49926)" />
        <path
           sodipodi:nodetypes="cccccc"
           inkscape:connector-curvature="0"
           id="path3191"
           d="m 345.92301,1041.1693 -0.0441,9.3034 -1.91022,-2.2952 1.47748,-9.2676 c 0.7653,0.1328 -0.49563,0.022 0.45474,0.012 z"
           style="fill:#000000;fill-opacity:1;stroke:none" />
        <path
           transform="matrix(0.91666663,0,0,0.88662571,30.639412,117.87365)"
           d="m 346.40625,1039.2997 a 1.5,2.625 0 1 1 -3,0 1.5,2.625 0 1 1 3,0 z"
           sodipodi:ry="2.625"
           sodipodi:rx="1.5"
           sodipodi:cy="1039.2997"
           sodipodi:cx="344.90625"
           id="path3961"
           style="opacity:0.98999999;fill:#000000;fill-opacity:1;stroke:none"
           sodipodi:type="arc" />
        <path
           sodipodi:type="arc"
           style="opacity:0.98999999;fill:#ffffff;fill-opacity:1;stroke:none"
           id="path3963"
           sodipodi:cx="344.90625"
           sodipodi:cy="1039.2997"
           sodipodi:rx="1.5"
           sodipodi:ry="2.625"
           d="m 346.40625,1039.2997 a 1.5,2.625 0 1 1 -3,0 1.5,2.625 0 1 1 3,0 z"
           transform="matrix(0.4270833,0,0,0.57429164,199.45288,442.39597)" />
      </g>
      <path
         sodipodi:type="arc"
         style="opacity:0.98999999;fill:#ffffff;fill-opacity:1;stroke:none"
         id="path4012"
         sodipodi:cx="344.90625"
         sodipodi:cy="1039.2997"
         sodipodi:rx="1.5"
         sodipodi:ry="2.625"
         d="m 346.40625,1039.2997 a 1.5,2.625 0 1 1 -3,0 1.5,2.625 0 1 1 3,0 z"
         transform="matrix(-1.1888706,0.99306752,0.84584201,1.0767671,-107.80984,-421.96961)" />
      <path
         sodipodi:nodetypes="cccccc"
         inkscape:connector-curvature="0"
         id="path4014"
         d="m 363.25902,1040.6227 6.71623,8.4669 0.056,-3.5196 -7.96861,-7.3667 c -0.58707,0.6914 0.45772,-0.349 -0.39686,0.3497 z"
         style="fill:#000000;fill-opacity:1;stroke:none" />
      <path
         transform="matrix(-0.81734854,0.68273391,0.63631722,0.81003948,-18.252069,-37.742606)"
         d="m 346.40625,1039.2997 a 1.5,2.625 0 1 1 -3,0 1.5,2.625 0 1 1 3,0 z"
         sodipodi:ry="2.625"
         sodipodi:rx="1.5"
         sodipodi:cy="1039.2997"
         sodipodi:cx="344.90625"
         id="path4016"
         style="opacity:0.98999999;fill:#000000;fill-opacity:1;stroke:none"
         sodipodi:type="arc" />
      <path
         sodipodi:type="arc"
         style="opacity:0.98999999;fill:#ffffff;fill-opacity:1;stroke:none"
         id="path4018"
         sodipodi:cx="344.90625"
         sodipodi:cy="1039.2997"
         sodipodi:rx="1.5"
         sodipodi:ry="2.625"
         d="m 346.40625,1039.2997 a 1.5,2.625 0 1 1 -3,0 1.5,2.625 0 1 1 3,0 z"
         transform="matrix(-0.3808101,0.31809192,0.41216001,0.52468465,64.129423,384.48004)" />
    </g>
  </g>
</svg>
