<?xml version="1.0" encoding="UTF-8" standalone="no"?>
<!-- Created with Inkscape (http://www.inkscape.org/) -->

<svg
   xmlns:dc="http://purl.org/dc/elements/1.1/"
   xmlns:cc="http://creativecommons.org/ns#"
   xmlns:rdf="http://www.w3.org/1999/02/22-rdf-syntax-ns#"
   xmlns:svg="http://www.w3.org/2000/svg"
   xmlns="http://www.w3.org/2000/svg"
   xmlns:sodipodi="http://sodipodi.sourceforge.net/DTD/sodipodi-0.dtd"
   xmlns:inkscape="http://www.inkscape.org/namespaces/inkscape"
   width="16px"
   height="16px"
   id="svg4455"
   version="1.1"
   inkscape:version="0.48.2 r9819"
   sodipodi:docname="file-open_report.svg">
  <defs
     id="defs4457" />
  <sodipodi:namedview
     id="base"
     pagecolor="#ffffff"
     bordercolor="#666666"
     borderopacity="1.0"
     inkscape:pageopacity="0.0"
     inkscape:pageshadow="2"
     inkscape:zoom="5.5494505"
     inkscape:cx="-14.747117"
     inkscape:cy="18.774704"
     inkscape:current-layer="layer1"
     showgrid="true"
     inkscape:grid-bbox="true"
     inkscape:document-units="px"
     inkscape:window-width="1366"
     inkscape:window-height="716"
     inkscape:window-x="-8"
     inkscape:window-y="-8"
     inkscape:window-maximized="1" />
  <metadata
     id="metadata4460">
    <rdf:RDF>
      <cc:Work
         rdf:about="">
        <dc:format>image/svg+xml</dc:format>
        <dc:type
           rdf:resource="http://purl.org/dc/dcmitype/StillImage" />
        <dc:title />
      </cc:Work>
    </rdf:RDF>
  </metadata>
  <g
     id="layer1"
     inkscape:label="Layer 1"
     inkscape:groupmode="layer">
    <rect
       style="opacity:0;fill:#000000;fill-opacity:1;stroke:none;display:inline;filter:url(#filter4254)"
       id="rect3943"
       width="16"
       height="16"
       x="1.9450536e-05"
       y="0"
       inkscape:export-filename="/home/d1v1n/r49/Qr49/icons/document-open.png"
       inkscape:export-xdpi="135"
       inkscape:export-ydpi="135" />
    <path
       style="opacity:0.98999999;fill:#ffffff;fill-opacity:1;stroke:none"
       d="M 5.3125 -0.0625 L 5.3125 7.96875 L 5.5 8.65625 L 10.5625 8.65625 L 10.5625 8.71875 L 11.875 13.28125 L 11.875 13.34375 L 15.90625 13.34375 L 15.90625 3.0625 L 12.28125 -0.0625 L 5.3125 -0.0625 z "
       id="rect3960-9-2-2-1" />
    <path
       style="opacity:0.98999999;fill:#000000;fill-opacity:1;stroke:none"
       d="M 6.15625 0.90625 L 6.15625 8.65625 L 10.5625 8.65625 L 11.65625 12.53125 L 15.09375 12.53125 L 15.09375 3.625 L 12.0625 0.90625 L 6.15625 0.90625 z "
       id="path3968-4-1-6-7" />
    <path
       style="opacity:0.98999999;fill:#ffffff;fill-opacity:1;stroke:none"
       d="M 7.03125 1.78125 L 7.03125 8.65625 L 10.5625 8.65625 L 11.40625 11.65625 L 14.21875 11.65625 L 14.21875 4.09375 L 11.78125 1.78125 L 7.03125 1.78125 z "
       id="path3970-0-9-5-3" />
    <path
       style="fill:none;stroke:#000000;stroke-width:0.76949102px;stroke-linecap:butt;stroke-linejoin:miter;stroke-opacity:1"
       d="m 11.953953,1.7324439 0,2.2985571 2.318397,0"
       id="path3972-8-2-0-6"
       inkscape:connector-curvature="0" />
    <path
       style="fill:none;stroke:#000000;stroke-width:0.89789236px;stroke-linecap:butt;stroke-linejoin:miter;stroke-opacity:1;display:inline"
       d="m 7.7251785,3.5612173 3.1395015,0"
       id="path4190-4-7-9"
       inkscape:connector-curvature="0"
       inkscape:export-filename="/home/d1v1n/r49/Qr49/icons/document-open.png"
       inkscape:export-xdpi="135"
       inkscape:export-ydpi="135" />
    <path
       style="fill:none;stroke:#000000;stroke-width:0.84454858px;stroke-linecap:butt;stroke-linejoin:miter;stroke-opacity:1;display:inline"
       d="m 7.7237225,5.4570173 5.6522875,0"
       id="path4190-2-2-2-2"
       inkscape:connector-curvature="0"
       inkscape:export-filename="/home/d1v1n/r49/Qr49/icons/document-open.png"
       inkscape:export-xdpi="135"
       inkscape:export-ydpi="135" />
    <path
       style="fill:#ffffff;fill-opacity:1;stroke:none;display:inline"
       d="M 7.34375 4.9375 L 0 5 L 3.09375 16 L 10.40625 15.9375 L 15.65625 15.90625 L 12.84375 5.90625 L 7.625 5.9375 L 7.34375 4.9375 z M 5.21875 7.625 L 5.5 8.65625 L 10.5625 8.65625 L 11.875 13.28125 C 9.6732839 13.29425 7.4517734 13.3174 5.25 13.3125 L 3.625 7.65625 L 5.21875 7.625 z "
       id="rect3955" />
    <path
       style="fill:#000000;fill-opacity:1;stroke:none;display:inline"
       d="M 6.5625 5.9375 L 1.3125 5.96875 L 3.84375 14.96875 L 9.09375 14.9375 L 14.3125 14.90625 L 12.09375 6.90625 L 6.84375 6.9375 L 6.5625 5.9375 z M 5.21875 7.625 L 5.5 8.65625 L 10.5625 8.65625 L 11.875 13.28125 C 9.6732839 13.29425 7.4517734 13.3174 5.25 13.3125 L 3.625 7.65625 L 5.21875 7.625 z "
       id="rect3959" />
    <path
       style="fill:#ffffff;fill-opacity:1;stroke:none;display:inline"
       d="M 5.8125 6.9375 L 2.65625 6.96875 L 4.625 13.96875 L 7.75 13.9375 L 13 13.90625 L 11.3125 7.90625 L 6.09375 7.9375 L 5.8125 6.9375 z M 5.21875 7.625 L 5.5 8.65625 L 10.5625 8.65625 L 11.875 13.28125 C 9.6732839 13.29425 7.4517734 13.3174 5.25 13.3125 L 3.625 7.65625 L 5.21875 7.625 z "
       id="rect4024" />
  </g>
</svg>
