<?xml version="1.0" encoding="UTF-8" standalone="no"?>
<!-- Created with Inkscape (http://www.inkscape.org/) -->

<svg
   xmlns:dc="http://purl.org/dc/elements/1.1/"
   xmlns:cc="http://creativecommons.org/ns#"
   xmlns:rdf="http://www.w3.org/1999/02/22-rdf-syntax-ns#"
   xmlns:svg="http://www.w3.org/2000/svg"
   xmlns="http://www.w3.org/2000/svg"
   xmlns:sodipodi="http://sodipodi.sourceforge.net/DTD/sodipodi-0.dtd"
   xmlns:inkscape="http://www.inkscape.org/namespaces/inkscape"
   width="16px"
   height="16px"
   id="svg4534"
   version="1.1"
   inkscape:version="0.48.2 r9819"
   sodipodi:docname="file-load_source_data.svg">
  <defs
     id="defs4536" />
  <sodipodi:namedview
     id="base"
     pagecolor="#ffffff"
     bordercolor="#666666"
     borderopacity="1.0"
     inkscape:pageopacity="0.0"
     inkscape:pageshadow="2"
     inkscape:zoom="22.197802"
     inkscape:cx="1.0788081"
     inkscape:cy="4.7290451"
     inkscape:current-layer="layer1"
     showgrid="true"
     inkscape:grid-bbox="true"
     inkscape:document-units="px"
     inkscape:window-width="1366"
     inkscape:window-height="716"
     inkscape:window-x="-8"
     inkscape:window-y="-8"
     inkscape:window-maximized="1" />
  <metadata
     id="metadata4539">
    <rdf:RDF>
      <cc:Work
         rdf:about="">
        <dc:format>image/svg+xml</dc:format>
        <dc:type
           rdf:resource="http://purl.org/dc/dcmitype/StillImage" />
        <dc:title />
      </cc:Work>
    </rdf:RDF>
  </metadata>
  <g
     id="layer1"
     inkscape:label="Layer 1"
     inkscape:groupmode="layer">
    <rect
       style="opacity:0;fill:#000000;fill-opacity:1;stroke:none;display:inline;filter:url(#filter4254)"
       id="rect3943-74"
       width="16"
       height="16"
       x="0.0087656695"
       y="-0.013096616"
       inkscape:export-filename="/home/d1v1n/r49/Qr49/icons/changeSourceData.png"
       inkscape:export-xdpi="135"
       inkscape:export-ydpi="135" />
    <path
       style="fill:#ffffff;fill-opacity:1;stroke:none"
       d="M 7.125 0.03125 L 7.125 8.6875 L 10.59375 8.6875 L 10.65625 8.875 L 15.96875 8.875 L 15.96875 0.03125 L 7.125 0.03125 z "
       id="rect3926-3" />
    <rect
       style="fill:#000000;fill-opacity:1;stroke:none"
       id="rect3928-1"
       width="7.3483496"
       height="7.3483496"
       x="7.8701234"
       y="0.77722299" />
    <rect
       style="fill:#ffffff;fill-opacity:1;stroke:none"
       id="rect3930-5"
       width="5.8786798"
       height="5.8786798"
       x="8.6049585"
       y="1.512058" />
    <path
       style="fill:none;stroke:#000000;stroke-width:0.73483497px;stroke-linecap:butt;stroke-linejoin:miter;stroke-opacity:1"
       d="m 11.544298,1.5120707 0,5.8786797"
       id="path3932-6"
       inkscape:connector-curvature="0" />
    <path
       style="fill:none;stroke:#000000;stroke-width:0.73483497px;stroke-linecap:butt;stroke-linejoin:miter;stroke-opacity:1"
       d="m 8.6049582,4.4514106 5.8786798,0"
       id="path3934-0"
       inkscape:connector-curvature="0" />
    <path
       style="fill:#ffffff;fill-opacity:1;stroke:none;display:inline"
       d="M 7.34375 4.9375 L 0 5 L 3.09375 16 L 10.40625 15.9375 L 15.65625 15.90625 L 12.84375 5.90625 L 7.625 5.9375 L 7.34375 4.9375 z M 5.25 7.65625 L 5.5625 8.6875 L 10.59375 8.6875 L 11.90625 13.3125 C 9.7045348 13.3255 7.514273 13.34865 5.3125 13.34375 L 3.6875 7.6875 L 5.25 7.65625 z "
       id="rect3955-4" />
    <path
       style="fill:#000000;fill-opacity:1;stroke:none;display:inline"
       d="M 6.5625 5.9375 L 1.3125 5.96875 L 3.84375 14.96875 L 9.09375 14.9375 L 14.3125 14.90625 L 12.0625 6.90625 L 6.84375 6.9375 L 6.5625 5.9375 z M 5.25 7.65625 L 5.5625 8.6875 L 10.59375 8.6875 L 11.90625 13.3125 C 9.7045348 13.3255 7.514273 13.34865 5.3125 13.34375 L 3.6875 7.6875 L 5.25 7.65625 z "
       id="rect3959-4" />
    <path
       style="fill:#ffffff;fill-opacity:1;stroke:none;display:inline"
       d="M 5.78125 6.9375 L 2.65625 6.96875 L 4.625 13.96875 L 7.75 13.9375 L 13 13.90625 L 11.3125 7.90625 L 6.0625 7.9375 L 5.78125 6.9375 z M 5.25 7.65625 L 5.5625 8.6875 L 10.59375 8.6875 L 11.90625 13.3125 C 9.7045348 13.3255 7.514273 13.34865 5.3125 13.34375 L 3.6875 7.6875 L 5.25 7.65625 z "
       id="rect4024-9" />
  </g>
</svg>
