<?xml version="1.0" encoding="UTF-8" standalone="no"?>
<!-- Created with Inkscape (http://www.inkscape.org/) -->

<svg
   xmlns:dc="http://purl.org/dc/elements/1.1/"
   xmlns:cc="http://creativecommons.org/ns#"
   xmlns:rdf="http://www.w3.org/1999/02/22-rdf-syntax-ns#"
   xmlns:svg="http://www.w3.org/2000/svg"
   xmlns="http://www.w3.org/2000/svg"
   xmlns:sodipodi="http://sodipodi.sourceforge.net/DTD/sodipodi-0.dtd"
   xmlns:inkscape="http://www.inkscape.org/namespaces/inkscape"
   width="16px"
   height="16px"
   id="svg5728"
   version="1.1"
   inkscape:version="0.48.3.1 r9886"
   sodipodi:docname="Новый документ 68">
  <defs
     id="defs5730" />
  <sodipodi:namedview
     id="base"
     pagecolor="#ffffff"
     bordercolor="#666666"
     borderopacity="1.0"
     inkscape:pageopacity="0.0"
     inkscape:pageshadow="2"
     inkscape:zoom="22.197802"
     inkscape:cx="8"
     inkscape:cy="8"
     inkscape:current-layer="layer1"
     showgrid="true"
     inkscape:grid-bbox="true"
     inkscape:document-units="px"
     inkscape:window-width="1920"
     inkscape:window-height="999"
     inkscape:window-x="0"
     inkscape:window-y="26"
     inkscape:window-maximized="1" />
  <metadata
     id="metadata5733">
    <rdf:RDF>
      <cc:Work
         rdf:about="">
        <dc:format>image/svg+xml</dc:format>
        <dc:type
           rdf:resource="http://purl.org/dc/dcmitype/StillImage" />
        <dc:title></dc:title>
      </cc:Work>
    </rdf:RDF>
  </metadata>
  <g
     id="layer1"
     inkscape:label="Layer 1"
     inkscape:groupmode="layer">
    <g
       style="display:inline"
       id="g4182"
       transform="translate(-179.93614,-1036.8332)"
       inkscape:export-filename="/home/d1v1n/r49/Qr49/icons/gnome-mime-application-pdf.png"
       inkscape:export-xdpi="135"
       inkscape:export-ydpi="135">
      <g
         id="g3974">
        <path
           style="opacity:0.98999999;fill:#ffffff;fill-opacity:1;stroke:#ffffff;stroke-width:1.01057684;stroke-miterlimit:4;stroke-opacity:1;stroke-dasharray:none"
           d="m 182.5,1037.875 0,13.9688 11,0 0,-10.6876 -3.75,-3.2812 -7.25,0 z"
           id="rect3960"
           inkscape:connector-curvature="0" />
        <path
           id="path3968"
           d="m 183,1038.3566 0,13.0056 10,0 0,-9.9506 -3.40908,-3.055 -6.59092,0 z"
           style="opacity:0.98999999;fill:#000000;fill-opacity:1;stroke:none"
           inkscape:connector-curvature="0" />
        <path
           inkscape:connector-curvature="0"
           style="opacity:0.98999999;fill:#ffffff;fill-opacity:1;stroke:none"
           d="m 184,1039.3566 0,11.0056 8,0 0,-8.4204 -2.72726,-2.5852 -5.27274,0 z"
           id="path3970" />
        <path
           style="fill:none;stroke:#000000;stroke-width:0.85912365px;stroke-linecap:butt;stroke-linejoin:miter;stroke-opacity:1"
           d="m 189.48199,1039.2918 0,2.5663 2.58845,0"
           id="path3972"
           inkscape:connector-curvature="0" />
      </g>
      <path
         sodipodi:nodetypes="csssssssssssssssssssscc"
         inkscape:connector-curvature="0"
         id="path3958"
         d="m 186.98613,1040.2163 c -0.32304,0.082 -0.41709,0.2143 -0.49021,0.4725 -0.10837,0.3827 -0.0851,0.8416 0.0216,1.2252 0.083,0.298 0.28364,0.5169 0.45451,0.7409 0.80553,1.056 1.72729,1.9548 2.6621,2.8063 0.2035,0.1854 0.40055,0.4092 0.63848,0.4988 0.28742,0.1086 0.57085,0.1102 0.82615,-0.087 0.16481,-0.1272 0.27967,-0.3794 0.28006,-0.6108 5.7e-4,-0.3532 -0.11235,-0.6427 -0.32706,-0.8546 -0.16889,-0.1667 -0.43881,-0.2207 -0.66011,-0.2137 -0.26024,0.016 -0.57318,0.055 -0.75752,0.1428 -1.44974,0.6884 -2.42252,1.3817 -3.9442,2.237 -0.22099,0.1242 -0.3057,0.2291 -0.59508,0.5769 -0.16584,0.1995 -0.31793,0.4375 -0.39974,0.7128 -0.0799,0.2685 -0.18992,0.6079 -0.15534,0.9529 0.0193,0.1936 0.0634,0.4353 0.33504,0.618 0.33034,0.2223 0.53594,0.026 0.73245,-0.1058 0.18271,-0.1226 0.28759,-0.3076 0.40961,-0.5246 0.19039,-0.3387 0.32318,-0.5733 0.47614,-0.9831 0.075,-0.2006 0.12046,-0.3803 0.17177,-0.6005 0.4039,-1.7338 0.75702,-3.4991 1.0767,-5.2072 0.0573,-0.3065 0.0197,-0.8486 -0.0892,-1.1586 -0.16923,-0.582 -0.43733,-0.6241 -0.66615,-0.6382 z"
         style="fill:none;stroke:#000000;stroke-width:0.78665751px;stroke-linecap:butt;stroke-linejoin:miter;stroke-opacity:1" />
    </g>
  </g>
</svg>
