<?xml version="1.0" encoding="UTF-8" standalone="no"?>
<!-- Created with Inkscape (http://www.inkscape.org/) -->

<svg
   xmlns:dc="http://purl.org/dc/elements/1.1/"
   xmlns:cc="http://creativecommons.org/ns#"
   xmlns:rdf="http://www.w3.org/1999/02/22-rdf-syntax-ns#"
   xmlns:svg="http://www.w3.org/2000/svg"
   xmlns="http://www.w3.org/2000/svg"
   xmlns:sodipodi="http://sodipodi.sourceforge.net/DTD/sodipodi-0.dtd"
   xmlns:inkscape="http://www.inkscape.org/namespaces/inkscape"
   width="16px"
   height="16px"
   id="svg4612"
   version="1.1"
   inkscape:version="0.48.2 r9819"
   sodipodi:docname="file-load_calc_options.svg">
  <defs
     id="defs4614" />
  <sodipodi:namedview
     id="base"
     pagecolor="#ffffff"
     bordercolor="#666666"
     borderopacity="1.0"
     inkscape:pageopacity="0.0"
     inkscape:pageshadow="2"
     inkscape:zoom="15.696216"
     inkscape:cx="-7.5284191"
     inkscape:cy="6.8467446"
     inkscape:current-layer="layer1"
     showgrid="true"
     inkscape:grid-bbox="true"
     inkscape:document-units="px"
     inkscape:window-width="1366"
     inkscape:window-height="716"
     inkscape:window-x="-8"
     inkscape:window-y="-8"
     inkscape:window-maximized="1" />
  <metadata
     id="metadata4617">
    <rdf:RDF>
      <cc:Work
         rdf:about="">
        <dc:format>image/svg+xml</dc:format>
        <dc:type
           rdf:resource="http://purl.org/dc/dcmitype/StillImage" />
        <dc:title />
      </cc:Work>
    </rdf:RDF>
  </metadata>
  <g
     id="layer1"
     inkscape:label="Layer 1"
     inkscape:groupmode="layer">
    <rect
       style="opacity:0;fill:#000000;fill-opacity:1;stroke:none;display:inline;filter:url(#filter4254)"
       id="rect3943-74-3"
       width="16"
       height="16"
       x="0.093225904"
       y="-0.093897931"
       inkscape:export-filename="/home/d1v1n/r49/Qr49/icons/loadCalcSerrings.png"
       inkscape:export-xdpi="135"
       inkscape:export-ydpi="135" />
    <path
       transform="matrix(0.73961995,-0.49171039,0.49171039,0.73961995,-723.65896,-617.91193)"
       inkscape:transform-center-y="0.28887514"
       inkscape:transform-center-x="0.58721425"
       d="m 306.4375,1042.4247 -3.10541,2.7537 -3.9375,-1.3125 -0.83209,-4.0662 3.10541,-2.7537 3.9375,1.3125 z"
       inkscape:randomized="0"
       inkscape:rounded="0"
       inkscape:flatsided="true"
       sodipodi:arg2="0.84534933"
       sodipodi:arg1="0.32175055"
       sodipodi:r2="2.0752447"
       sodipodi:r1="4.1504893"
       sodipodi:cy="1041.1122"
       sodipodi:cx="302.5"
       sodipodi:sides="6"
       id="path4007-6"
       style="opacity:0.98999999;fill:#ffffff;fill-opacity:1;stroke:none"
       sodipodi:type="star" />
    <path
       sodipodi:type="star"
       style="opacity:0.98999999;fill:#000000;fill-opacity:1;stroke:none"
       id="path4003-4"
       sodipodi:sides="6"
       sodipodi:cx="302.5"
       sodipodi:cy="1041.1122"
       sodipodi:r1="4.1504893"
       sodipodi:r2="2.0752447"
       sodipodi:arg1="0.32175055"
       sodipodi:arg2="0.84534933"
       inkscape:flatsided="true"
       inkscape:rounded="0"
       inkscape:randomized="0"
       d="m 306.4375,1042.4247 -3.10541,2.7537 -3.9375,-1.3125 -0.83209,-4.0662 3.10541,-2.7537 3.9375,1.3125 z"
       inkscape:transform-center-x="0.462175"
       inkscape:transform-center-y="0.22741991"
       transform="matrix(0.58214874,-0.38702116,0.38702116,0.58214874,-567.03068,-485.63521)" />
    <path
       style="opacity:0.98999999;fill:#ffffff;fill-opacity:1;stroke:none"
       d="M 10.509747,1.8919899 9.9773371,3.9177073 11.467629,5.389512 13.49606,4.8564641 13.950196,3.1239461 13.685969,3.4000374 13.431207,3.6281065 12.751695,4.289823 11.482928,3.9577216 11.163515,2.7088897 11.843027,2.0471733 12.070775,1.8036075 12.534432,1.3399507 10.511754,1.8939375 z"
       id="path4009-6"
       inkscape:connector-curvature="0" />
    <path
       style="opacity:0.98999999;fill:#ffffff;fill-opacity:1;stroke:none"
       d="M 8.65625 3.6875 L 4.71875 7.625 L 5.21875 7.625 L 5.53125 8.625 L 9.84375 8.625 L 11.71875 6.75 L 8.65625 3.6875 z M 3.875 8.46875 L 3.28125 9.0625 L 4.34375 10.125 L 3.875 8.46875 z "
       id="rect4041-0" />
    <path
       style="opacity:0.98999999;fill:#000000;fill-opacity:1;stroke:none"
       d="M 9.4375 3.65625 L 5.28125 7.8125 L 5.53125 8.625 L 9.09375 8.625 L 11.75 5.96875 L 9.4375 3.65625 z "
       id="rect4043-8" />
    <path
       style="opacity:0.98999999;fill:#ffffff;fill-opacity:1;stroke:none"
       d="M 10.03125 3.875 L 5.46875 8.4375 L 5.53125 8.625 L 8.21875 8.625 L 11.5 5.34375 L 10.03125 3.875 z "
       id="rect4045-6" />
    <rect
       style="opacity:0.98999999;fill:#ffffff;fill-opacity:1;stroke:none"
       id="rect4049-9"
       width="1.6106286"
       height="1.1609204"
       x="7.1183701"
       y="10.333838"
       transform="matrix(0.70710678,-0.70710678,0.70710678,0.70710678,0,0)" />
    <path
       sodipodi:type="star"
       style="opacity:0.98999999;fill:#ffffff;fill-opacity:1;stroke:none"
       id="path4051-7"
       sodipodi:sides="6"
       sodipodi:cx="291.37219"
       sodipodi:cy="1041.8661"
       sodipodi:r1="0.97026092"
       sodipodi:r2="0.84027064"
       sodipodi:arg1="1.0460006"
       sodipodi:arg2="1.5695993"
       inkscape:flatsided="true"
       inkscape:rounded="0"
       inkscape:randomized="0"
       d="m 291.85833,1042.7058 -0.97026,0 -0.48614,-0.8396 0.48413,-0.8409 0.97026,-0 0.48613,0.8397 z"
       transform="matrix(0.4878138,-0.4878138,0.4878138,0.4878138,-637.79777,-363.24354)" />
    <path
       style="fill:#ffffff;fill-opacity:1;stroke:none;display:inline"
       d="M 7.34375 4.9375 L 0 5 L 3.09375 16 L 10.40625 15.9375 L 15.65625 15.90625 L 12.84375 5.90625 L 7.625 5.9375 L 7.34375 4.9375 z M 5.21875 7.625 L 5.53125 8.625 L 10.5625 8.625 L 11.875 13.28125 C 9.6732832 13.29425 7.451773 13.3174 5.25 13.3125 L 3.625 7.65625 L 5.21875 7.625 z "
       id="rect3955-4-9" />
    <path
       style="fill:#000000;fill-opacity:1;stroke:none;display:inline"
       d="M 6.5625 5.9375 L 1.34375 5.96875 L 3.84375 14.96875 L 9.09375 14.9375 L 14.34375 14.90625 L 12.09375 6.90625 L 6.84375 6.9375 L 6.5625 5.9375 z M 5.21875 7.625 L 5.53125 8.625 L 10.5625 8.625 L 11.875 13.28125 C 9.6732832 13.29425 7.451773 13.3174 5.25 13.3125 L 3.625 7.65625 L 5.21875 7.625 z "
       id="rect3959-4-8" />
    <path
       style="fill:#ffffff;fill-opacity:1;stroke:none;display:inline"
       d="M 5.8125 6.9375 L 2.65625 6.96875 L 4.625 13.96875 L 7.78125 13.9375 L 13 13.90625 L 11.3125 7.90625 L 6.09375 7.9375 L 5.8125 6.9375 z M 5.21875 7.625 L 5.53125 8.625 L 10.5625 8.625 L 11.875 13.28125 C 9.6732832 13.29425 7.451773 13.3174 5.25 13.3125 L 3.625 7.65625 L 5.21875 7.625 z "
       id="rect4024-9-9" />
  </g>
</svg>
